<svg width="72" height="212" viewBox="0 0 72 212" fill="none" xmlns="http://www.w3.org/2000/svg">
<path d="M45.9367 183.73H56.5367C58.4881 183.73 60.07 182.148 60.07 180.197C60.07 178.246 58.4881 176.664 56.5367 176.664H45.9367C43.9853 176.664 42.4033 178.246 42.4033 180.197C42.4033 182.148 43.9853 183.73 45.9367 183.73Z" fill="#484BF2"/>
<path d="M67.1367 180.197C67.1367 182.148 68.7186 183.73 70.6701 183.73H169.604C171.555 183.73 173.137 182.148 173.137 180.197C173.137 178.246 171.555 176.664 169.604 176.664H70.6701C68.7186 176.664 67.1367 178.246 67.1367 180.197Z" fill="#484BF2"/>
<path d="M45.9367 169.597H84.8034C86.7548 169.597 88.3367 168.015 88.3367 166.064C88.3367 164.112 86.7548 162.53 84.8034 162.53H45.9367C43.9853 162.53 42.4033 164.112 42.4033 166.064C42.4033 168.015 43.9853 169.597 45.9367 169.597Z" fill="#484BF2"/>
<path d="M204.937 134.263H38.87C28.0791 134.267 17.7752 138.755 10.4228 146.654C3.07042 154.552 -0.669121 165.151 0.0986445 175.914C1.92131 196.511 19.2932 212.232 39.9689 211.997H204.937C208.84 211.997 212.004 208.833 212.004 204.93V197.864C212.004 193.961 208.84 190.797 204.937 190.797V155.463C208.84 155.463 212.004 152.3 212.004 148.397V141.33C212.004 137.427 208.84 134.263 204.937 134.263ZM197.87 190.797H39.5979C30.5311 190.983 22.7283 184.426 21.3517 175.462C20.6878 170.415 22.2301 165.327 25.5843 161.498C28.9385 157.669 33.7795 155.47 38.87 155.463H197.87V190.797ZM204.937 148.397H38.87C31.7474 148.396 24.9702 151.466 20.2734 156.82C15.5765 162.175 13.4161 169.294 14.3451 176.356C16.1736 188.846 26.9761 198.046 39.5979 197.864H204.937V204.93H39.9689C22.9977 205.182 8.69518 192.322 7.14766 175.42C6.51172 166.61 9.56838 157.933 15.5854 151.467C21.6023 145.001 30.0375 141.329 38.87 141.33H204.937V148.397Z" fill="#484BF2"/>
<path d="M207.301 35.7468L108.403 0.41341C106.841 -0.137803 105.138 -0.137803 103.576 0.41341L4.70259 35.7468C1.90022 36.7569 0.0322266 39.4159 0.0322266 42.3948C0.0322266 45.3737 1.90022 48.0326 4.70259 49.0428L53.0034 66.2996V95.3967C53.0034 109.134 100.58 109.53 106.003 109.53C111.427 109.53 159.004 109.134 159.004 95.3967V66.2996L169.604 62.5366V70.6633C169.604 74.5661 172.767 77.73 176.67 77.73H183.737C187.64 77.73 190.804 74.5661 190.804 70.6633V60.0633C190.793 58.4271 190.399 56.8162 189.652 55.3604L207.318 49.0428C210.121 48.0326 211.989 45.3737 211.989 42.3948C211.989 39.4159 210.121 36.7569 207.318 35.7468H207.301ZM151.937 87.6233C138.478 81.4965 110.12 81.2633 106.003 81.2633C101.887 81.2633 73.5285 81.4965 60.07 87.6233V49.7742C62.19 47.0535 78.8533 42.3966 106.003 42.3966C133.154 42.3966 149.817 47.0535 151.937 49.7742V87.6233ZM106.003 102.463C79.8567 102.463 63.4373 98.1456 60.3668 95.3967C63.4373 92.6477 79.8638 88.33 106.003 88.33C132.143 88.33 148.57 92.6477 151.64 95.3967C148.57 98.1456 132.15 102.463 106.003 102.463ZM171.261 54.4276L159.004 58.7983V49.4632C159.004 35.7256 111.427 35.3299 106.003 35.3299C100.58 35.3299 53.0034 35.7256 53.0034 49.4632V58.7948L7.06993 42.3966L106.053 7.06316L176.67 32.2983V50.1134C174.436 50.9073 172.532 52.426 171.261 54.4276ZM183.737 70.6633H176.67V60.0633C176.67 58.1119 178.252 56.5299 180.204 56.5299C182.155 56.5299 183.737 58.1119 183.737 60.0633V70.6633ZM183.737 49.972V34.8246L204.937 42.3966L183.737 49.972Z" fill="#484BF2"/>
</svg>
