<svg width="213" height="213" viewBox="0 0 213 213" fill="none" xmlns="http://www.w3.org/2000/svg">
<path d="M190.234 88.6486L181.977 86.9985C179.259 86.4542 177.147 84.3454 176.606 81.6272L175.089 74.0444C178.249 71.7097 180.81 68.6252 182.518 65.0478H184.863C192.415 65.0478 198.556 58.9062 198.556 51.3542C198.556 48.2698 197.495 45.4523 195.766 43.1621L197.019 39.4032C198.04 36.3358 198.556 33.1555 198.556 29.9307C198.556 13.4265 185.13 0 168.622 0H159.547C151.129 0 143.282 3.96771 138.295 10.681L135.799 11.3074C133.858 11.7901 132.085 12.6186 130.503 13.6935H6.84677V102.702H40.1187L34.9836 123.242H0V130.089H212.25V115.498C212.25 102.489 202.99 91.199 190.234 88.6486ZM89.7578 102.702L94.8929 123.242H59.1596L64.2946 102.702H89.7578ZM96.8168 102.702H112.766C110.719 106.553 109.548 110.914 109.548 115.498V123.242H101.952L96.8168 102.702ZM116.395 115.498C116.395 105.742 123.338 97.2721 132.906 95.3585L135.799 94.7799L148.736 123.242H116.395V115.498ZM148.212 89.9153L154.583 93.099L145.764 100.155L142.646 93.2942C144.778 92.6163 146.682 91.4592 148.212 89.9153ZM161.854 102.702H159.944L158.595 98.6586L160.899 96.8168L163.203 98.6586L161.854 102.702ZM153.96 106.402L152.522 115.026L148.688 106.587L152.899 103.219L153.96 106.402ZM160.375 109.548H161.423L163.706 123.242H158.092L160.375 109.548ZM167.838 106.402L168.9 103.219L173.11 106.587L169.276 115.026L167.838 106.402ZM179.153 93.2976L176.034 100.158L167.215 93.1024L173.586 89.9187C175.117 91.4592 177.02 92.6163 179.153 93.2976ZM169.892 82.9658C169.961 83.3081 170.077 83.6334 170.17 83.9654L160.899 88.6041L151.625 83.9688C151.718 83.6368 151.834 83.3116 151.903 82.9692L153.022 77.3822C155.494 78.2449 158.137 78.7379 160.899 78.7379C163.662 78.7379 166.305 78.2449 168.776 77.3788L169.892 82.9658ZM178.016 54.7742C178.016 64.2125 170.337 71.8911 160.899 71.8911C151.461 71.8911 143.782 64.2125 143.782 54.7742V41.5017C143.782 36.798 146.959 32.7139 151.512 31.5499C153.111 35.1445 156.716 37.6573 160.899 37.6573H174.593C176.479 37.6573 178.016 39.1909 178.016 41.0806V54.7742ZM184.863 58.1976H184.589C184.75 57.0747 184.863 55.9381 184.863 54.7742V44.504C188.639 44.504 191.71 47.5748 191.71 51.3508C191.71 55.1268 188.639 58.1976 184.863 58.1976ZM137.459 17.9454L142.471 16.6924L143.204 15.5935C146.856 10.1161 152.967 6.84677 159.547 6.84677H168.622C181.354 6.84677 191.71 17.2025 191.71 29.9307C191.71 32.4161 191.309 34.8706 190.525 37.2328L190.039 38.6877C188.44 38.0338 186.694 37.6573 184.863 37.6573H184.233C182.816 33.6827 179.05 30.8105 174.593 30.8105H160.899C159.013 30.8105 157.476 29.2768 157.476 27.3871C157.476 25.4974 159.013 23.9637 160.899 23.9637H164.323V17.1169H160.899C156.195 17.1169 152.217 20.2973 151.009 24.6176L149.9 24.8949C143.549 26.4833 138.846 31.4952 137.425 37.6573H136.935C135.214 37.6573 133.584 38.0133 132.067 38.5918C131.16 35.4389 130.089 30.9645 130.089 27.3871C130.089 22.9127 133.118 19.034 137.459 17.9454ZM136.935 44.504V54.7742C136.935 55.9381 137.048 57.0747 137.209 58.1976H136.935C133.159 58.1976 130.089 55.1268 130.089 51.3508C130.089 47.5748 133.159 44.504 136.935 44.504ZM13.6935 20.5403H124.776C123.817 22.6457 123.242 24.9531 123.242 27.3871C123.242 32.8919 125.176 39.6668 126.224 42.9258C124.385 45.2572 123.242 48.1568 123.242 51.3508C123.242 58.9028 129.383 65.0444 136.935 65.0444H139.281C140.989 68.6218 143.549 71.7063 146.709 74.041L145.193 81.6238C144.648 84.342 142.54 86.4508 139.821 86.9951L131.564 88.6452C126.268 89.703 121.595 92.2843 117.915 95.8514H13.6935V20.5403ZM47.1777 102.702H57.2356L52.1005 123.242H42.0426L47.1777 102.702ZM205.403 123.242H173.062L185.999 94.7799L188.892 95.3585C198.461 97.2721 205.403 105.745 205.403 115.498V123.242Z" fill="#91B3FA"/>
<path d="M116.395 34.234H75.3147V47.9275H61.6212V27.3872H20.5405V68.4678H41.0808V89.0082H89.0083V68.4678H116.395V34.234ZM27.3873 34.234H54.7744V61.6211H27.3873V34.234ZM82.1615 82.1614H47.9276V68.4678H61.6212V54.7743H82.1615V82.1614ZM109.549 61.6211H89.0083V47.9275H82.1615V41.0808H109.549V61.6211Z" fill="#91B3FA"/>
<path d="M189.96 179.221C195.297 174.726 198.556 168.04 198.556 160.899V157.476C198.556 146.148 189.344 136.936 178.016 136.936H171.169C159.841 136.936 150.629 146.148 150.629 157.476V160.899C150.629 168.044 153.892 174.733 159.222 179.221C150.927 181.587 144.155 187.28 140.335 194.729C136.484 187.287 129.698 181.614 121.51 179.245C126.747 174.846 130.089 168.256 130.089 160.899V157.476C130.089 146.148 120.876 136.936 109.548 136.936H102.702C91.3736 136.936 82.1613 146.148 82.1613 157.476V160.899C82.1613 168.256 85.5025 174.846 90.7403 179.245C82.5413 181.618 75.7527 187.297 71.9048 194.753C68.0604 187.297 61.2649 181.6 53.0659 179.225C58.29 174.826 61.621 168.246 61.621 160.899V154.052C61.621 144.614 53.9423 136.936 44.504 136.936H20.5403C16.7643 136.936 13.6935 140.006 13.6935 143.782V160.899C13.6935 168.256 17.0348 174.846 22.2726 179.245C9.42801 182.96 0 194.801 0 208.827V212.25H212.25V208.827C212.25 194.835 202.973 182.932 189.96 179.221ZM181.44 184.863C181.44 188.639 178.369 191.71 174.593 191.71C170.817 191.71 167.746 188.639 167.746 184.863C167.746 184.521 167.832 184.202 167.879 183.874C170.04 184.504 172.302 184.863 174.593 184.863C176.883 184.863 179.149 184.504 181.306 183.874C181.354 184.202 181.44 184.521 181.44 184.863ZM157.476 160.899V157.476C157.476 149.924 163.617 143.782 171.169 143.782H178.016C185.568 143.782 191.71 149.924 191.71 157.476V160.899C191.71 167.496 187.845 173.576 181.837 176.4C177.448 178.513 171.765 178.526 167.321 176.387C161.341 173.576 157.476 167.496 157.476 160.899ZM89.0081 160.899V157.476C89.0081 149.924 95.1496 143.782 102.702 143.782H109.548C117.1 143.782 123.242 149.924 123.242 157.476V160.899C123.242 170.338 115.563 178.016 106.125 178.016C96.6867 178.016 89.0081 170.338 89.0081 160.899ZM99.2782 184.863H112.972C125.019 184.863 134.991 193.812 136.662 205.403H75.5884C77.259 193.812 87.2313 184.863 99.2782 184.863ZM20.5403 160.899V143.782H44.504C50.1663 143.782 54.7742 148.39 54.7742 154.052V160.899C54.7742 170.338 47.0955 178.016 37.6573 178.016C28.219 178.016 20.5403 170.338 20.5403 160.899ZM7.08983 205.403C8.75702 193.805 18.7567 184.863 30.8105 184.863H44.504C56.5578 184.863 66.5575 193.805 68.2247 205.403H7.08983ZM144.049 205.403C145.378 196.081 152.019 188.44 160.995 185.828C161.502 192.922 167.373 198.557 174.593 198.557C181.809 198.557 187.68 192.925 188.187 185.835C197.167 188.447 203.835 196.081 205.16 205.403H144.049Z" fill="#91B3FA"/>
</svg>
