<svg width="25" height="25" viewBox="0 0 25 25" fill="none" xmlns="http://www.w3.org/2000/svg">
<path d="M12.9468 24.9852C14.8585 24.7136 16.5344 22.7183 17.589 19.7716C16.0645 19.4302 14.5088 19.2469 12.9468 19.2251V24.9852Z" fill="#6C7889"/>
<path d="M16.001 24.5167C16.114 24.4839 16.2266 24.451 16.3383 24.4148C16.4325 24.3845 16.5255 24.3517 16.6184 24.3192C16.7284 24.2813 16.8379 24.2422 16.9469 24.2008C17.0399 24.1654 17.132 24.1279 17.2242 24.0904C17.3307 24.0457 17.4369 24.0011 17.5421 23.9564C17.6339 23.9161 17.7251 23.8737 17.8163 23.8312C17.9195 23.7825 18.0223 23.733 18.1241 23.6815C18.2136 23.6359 18.3028 23.5895 18.3923 23.5417C18.4924 23.488 18.5919 23.4333 18.6907 23.377C18.7802 23.3264 18.8663 23.2755 18.9534 23.2232C19.0502 23.1636 19.1467 23.1041 19.2424 23.0445C19.3282 22.99 19.4137 22.9346 19.4981 22.8774C19.5924 22.8139 19.6853 22.7478 19.7778 22.6817C19.8609 22.6221 19.9436 22.5628 20.0248 22.503C20.1142 22.4341 20.2058 22.3627 20.2955 22.2912C20.3751 22.2277 20.4546 22.1647 20.5329 22.0994C20.6221 22.0253 20.7076 21.9485 20.7942 21.8717C20.8701 21.8043 20.9465 21.7375 21.0207 21.6683C21.106 21.5887 21.1891 21.5062 21.2722 21.4244C21.3442 21.3533 21.4171 21.2833 21.4875 21.2104C21.5006 21.1969 21.5131 21.1823 21.5266 21.1683C20.5521 20.665 19.5256 20.2699 18.4651 19.9902C17.9136 21.7491 16.9321 23.343 15.6096 24.6271C15.6458 24.6177 15.682 24.61 15.7183 24.6007C15.8138 24.5738 15.9076 24.5444 16.001 24.5167Z" fill="#6C7889"/>
<path d="M25 12.957H19.6428C19.6225 15.0488 19.3191 17.1281 18.7407 19.1384C19.9201 19.4535 21.0583 19.9064 22.1316 20.4878C23.8939 18.3637 24.9027 15.7155 25 12.957Z" fill="#6C7889"/>
<path d="M12.9468 12.0635H18.7492C18.7265 10.0458 18.4305 8.04042 17.8696 6.10205C16.2539 6.47053 14.6037 6.66731 12.9468 6.68912V12.0635Z" fill="#6C7889"/>
<path d="M12.9468 0.0356445V5.79577C14.5088 5.77374 16.0645 5.5907 17.589 5.24928C16.5344 2.30256 14.8585 0.307256 12.9468 0.0356445Z" fill="#6C7889"/>
<path d="M12.9468 18.3315C14.6037 18.3535 16.2539 18.5503 17.8696 18.9187C18.4305 16.9804 18.7265 14.9748 18.7492 12.957H12.9468V18.3315Z" fill="#6C7889"/>
<path d="M22.1316 4.53271C21.0583 5.11412 19.9201 5.56702 18.7407 5.88205C19.3191 7.89241 19.6225 9.97171 19.6428 12.0634H25C24.9025 9.30522 23.8937 6.65696 22.1316 4.53271Z" fill="#6C7889"/>
<path d="M21.5279 3.85511C21.5148 3.8418 21.5024 3.8274 21.4895 3.81366C21.4188 3.74079 21.3455 3.67054 21.2735 3.59964C21.1906 3.51783 21.1079 3.43515 21.0224 3.35574C20.9485 3.2868 20.8719 3.22157 20.796 3.15285C20.7094 3.07605 20.6227 2.99861 20.5337 2.92443C20.4565 2.8592 20.3773 2.79681 20.2988 2.73419C20.2093 2.66176 20.1177 2.58977 20.0256 2.52061C19.9449 2.45975 19.8631 2.40084 19.7809 2.34194C19.6875 2.27474 19.5937 2.20777 19.4986 2.14385C19.415 2.08756 19.3301 2.03258 19.2453 1.9787C19.1486 1.91652 19.0522 1.85566 18.9538 1.79675C18.8676 1.74505 18.7806 1.694 18.6933 1.64447C18.5934 1.58732 18.4933 1.5319 18.3923 1.4778C18.3028 1.43308 18.2136 1.38443 18.1241 1.3397C18.0214 1.28778 17.9178 1.23782 17.8115 1.18873C17.7221 1.14619 17.6313 1.10474 17.5392 1.06438C17.4334 1.01748 17.3265 0.975154 17.2199 0.93043C17.1278 0.892907 17.0362 0.855819 16.9432 0.820477C16.8348 0.779026 16.7248 0.740193 16.6149 0.702233C16.522 0.669509 16.429 0.637003 16.3348 0.60646C16.2231 0.570245 16.1114 0.537303 15.9966 0.504142C15.9037 0.476872 15.8103 0.449165 15.7163 0.424295C15.6803 0.414478 15.6436 0.406842 15.6074 0.397461C16.9299 1.68156 17.9112 3.27523 18.4629 5.03427C19.5245 4.75459 20.5525 4.35928 21.5279 3.85511Z" fill="#6C7889"/>
<path d="M0 12.0634H5.35718C5.37747 9.97171 5.68094 7.89241 6.25907 5.88205C5.0799 5.56724 3.94175 5.11433 2.86839 4.53271C1.10608 6.65674 0.0973002 9.30522 0 12.0634Z" fill="#6C7889"/>
<path d="M12.0534 24.9852V19.2251C10.4914 19.2471 8.93565 19.4302 7.41113 19.7716C8.46551 22.7183 10.1416 24.7136 12.0534 24.9852Z" fill="#6C7889"/>
<path d="M12.0532 12.957H6.25073C6.27342 14.9748 6.56925 16.9804 7.13036 18.9187C8.74607 18.5501 10.396 18.3533 12.0532 18.3315V12.957Z" fill="#6C7889"/>
<path d="M12.0534 0.0356445C10.1416 0.307256 8.46551 2.30256 7.41113 5.24928C8.93565 5.59092 10.4914 5.77396 12.0534 5.79577V0.0356445Z" fill="#6C7889"/>
<path d="M12.0532 6.68912C10.3962 6.66731 8.74607 6.47053 7.13036 6.10205C6.56925 8.04042 6.27342 10.0458 6.25073 12.0635H12.0532V6.68912Z" fill="#6C7889"/>
<path d="M9.38907 0.396973C9.35286 0.406354 9.31664 0.413989 9.28043 0.42337C9.18574 0.448677 9.09237 0.47682 8.99812 0.50409C8.88599 0.536814 8.77473 0.569757 8.66215 0.605536C8.56725 0.636296 8.47388 0.669021 8.38051 0.701527C8.27121 0.740141 8.16169 0.778538 8.05348 0.819552C7.96011 0.855331 7.86804 0.892418 7.77554 0.930378C7.6693 0.975102 7.56284 1.01982 7.4579 1.06433C7.36584 1.10469 7.27486 1.14701 7.18367 1.18955C7.08048 1.2382 6.97773 1.28773 6.87584 1.33921C6.7864 1.38481 6.69695 1.4315 6.60772 1.47906C6.50759 1.53272 6.40832 1.5877 6.30971 1.64399C6.22027 1.69395 6.13235 1.74521 6.04617 1.79757C5.94909 1.85604 5.8531 1.91647 5.75755 1.97625C5.67159 2.03122 5.58629 2.08664 5.50186 2.1438C5.40761 2.20728 5.31468 2.27338 5.22218 2.33949C5.13906 2.39904 5.05637 2.45838 4.975 2.51838C4.88359 2.5871 4.79632 2.65866 4.70426 2.73C4.62485 2.79348 4.54478 2.85653 4.46712 2.9222C4.37767 2.99594 4.29281 3.07229 4.20663 3.14865C4.13027 3.21672 4.05326 3.28282 3.97865 3.35328C3.89379 3.43248 3.8111 3.51472 3.7282 3.59632C3.65621 3.66744 3.58291 3.73769 3.51222 3.81077C3.49935 3.8243 3.48691 3.83913 3.47339 3.85288C4.4477 4.35639 5.47437 4.75148 6.53486 5.03117C7.08637 3.27322 8.06723 1.68042 9.38907 0.396973Z" fill="#6C7889"/>
<path d="M3.72625 21.4211C3.80937 21.5029 3.89206 21.5856 3.97736 21.6652C4.05153 21.7339 4.12789 21.7991 4.20403 21.8679C4.29064 21.9449 4.37725 22.0221 4.46626 22.0963C4.54349 22.1611 4.62224 22.2237 4.70122 22.2865C4.79067 22.3589 4.87989 22.4309 4.97458 22.5005C5.05508 22.561 5.13689 22.6194 5.2187 22.6794C5.31207 22.7464 5.40632 22.8134 5.50144 22.8777C5.58499 22.934 5.66986 22.989 5.75472 23.0431C5.85137 23.1051 5.9478 23.1659 6.04619 23.2248C6.13236 23.2767 6.21941 23.3276 6.30667 23.3773C6.40659 23.4345 6.50673 23.4899 6.60773 23.5438C6.69696 23.5885 6.78641 23.6372 6.87586 23.6819C6.97861 23.7338 7.08224 23.7838 7.18848 23.8331C7.27793 23.8752 7.36868 23.9166 7.46075 23.9572C7.56656 24.0041 7.67324 24.0464 7.78014 24.0911C7.8722 24.1287 7.96383 24.1658 8.05677 24.2011C8.16519 24.2428 8.27515 24.2816 8.3851 24.3196C8.47804 24.3521 8.57097 24.3848 8.66522 24.4151C8.77692 24.4513 8.88862 24.4845 9.00337 24.5174C9.09631 24.5447 9.18968 24.5724 9.28349 24.5975C9.3197 24.6073 9.35636 24.615 9.39257 24.6243C8.07007 23.34 7.08878 21.7463 6.53705 19.9873C5.47657 20.2672 4.4499 20.6623 3.47559 21.166C3.48868 21.1793 3.50111 21.1937 3.5142 21.2075C3.58118 21.2799 3.65339 21.3502 3.72625 21.4211Z" fill="#6C7889"/>
<path d="M2.86839 20.4878C3.94175 19.9064 5.0799 19.4535 6.25907 19.1384C5.68094 17.1281 5.37747 15.0488 5.35718 12.957H0C0.0975184 15.7153 1.10608 18.3635 2.86839 20.4878Z" fill="#6C7889"/>
</svg>
