<svg width="164" height="188" viewBox="0 0 164 188" fill="none" xmlns="http://www.w3.org/2000/svg">
<path d="M102.289 90.875L66.375 54.3594V88.5312C66.375 89.1528 66.6219 89.749 67.0615 90.1885C67.501 90.6281 68.0971 90.875 68.7188 90.875H102.289Z" fill="#484BF2"/>
<path d="M53.875 98.6875V50.25H5.4375C4.1943 50.25 3.00201 50.7439 2.12294 51.6229C1.24386 52.502 0.75 53.6943 0.75 54.9375V183.062C0.75 184.306 1.24386 185.498 2.12294 186.377C3.00201 187.256 4.1943 187.75 5.4375 187.75H102.312C103.556 187.75 104.748 187.256 105.627 186.377C106.506 185.498 107 184.306 107 183.062V103.375H58.5625C57.3193 103.375 56.127 102.881 55.2479 102.002C54.3689 101.123 53.875 99.9307 53.875 98.6875Z" fill="#484BF2"/>
<path d="M124.969 40.875H158.539L122.625 4.35938V38.5312C122.625 39.1529 122.872 39.749 123.311 40.1885C123.751 40.6281 124.347 40.875 124.969 40.875Z" fill="#484BF2"/>
<path d="M114.812 53.375C113.569 53.375 112.377 52.8811 111.498 52.0021C110.619 51.123 110.125 49.9307 110.125 48.6875V0.25H49.1875C47.9443 0.25 46.752 0.74386 45.8729 1.62294C44.9939 2.50201 44.5 3.6943 44.5 4.9375V37.75H60.9531C63.0532 37.7584 65.1309 38.1817 67.0669 38.9955C69.0029 39.8093 70.759 40.9976 72.2344 42.4922L114.875 85.8516C117.85 88.8699 119.511 92.9418 119.496 97.1797V150.25H158.562C159.806 150.25 160.998 149.756 161.877 148.877C162.756 147.998 163.25 146.806 163.25 145.562V53.375H114.812Z" fill="#484BF2"/>
</svg>
