<svg width="246" height="50" viewBox="0 0 246 50" fill="none" xmlns="http://www.w3.org/2000/svg">
<path d="M109.239 0.521515V48.9086" stroke="black"/>
<path d="M128.823 49.4328C130.581 49.4328 132.149 49.1418 133.523 48.5591C134.909 47.9765 136.004 47.1378 136.808 46.043C137.612 44.9361 138.013 43.6026 138.013 42.0417C138.013 40.8535 137.792 39.8691 137.35 39.0887C136.919 38.2966 136.371 37.6617 135.707 37.1841C135.054 36.6949 134.385 36.3221 133.698 36.0658C133.01 35.7979 132.411 35.5941 131.898 35.4543L126.97 34.004C126.318 33.8177 125.643 33.5788 124.944 33.2876C124.256 32.9964 123.674 32.5945 123.196 32.082C122.731 31.5694 122.497 30.888 122.497 30.0376C122.497 29.1989 122.753 28.4534 123.266 27.8011C123.779 27.1371 124.478 26.6187 125.363 26.246C126.248 25.8615 127.25 25.6752 128.368 25.6868C130.127 25.6984 131.636 26.1935 132.894 27.172C134.163 28.1389 134.927 29.4377 135.183 31.0685L137.874 30.5793C137.466 28.3194 136.412 26.5372 134.711 25.2325C133.01 23.9162 130.902 23.2522 128.386 23.2406C126.732 23.229 125.258 23.5085 123.965 24.0793C122.672 24.6384 121.653 25.4363 120.907 26.4731C120.162 27.4982 119.789 28.7213 119.789 30.1425C119.789 31.8315 120.296 33.1478 121.309 34.0914C122.334 35.0233 123.616 35.7164 125.153 36.1707L131.531 38.0753C132.114 38.25 132.702 38.4888 133.296 38.7917C133.89 39.0945 134.385 39.5139 134.781 40.0497C135.189 40.5855 135.393 41.2845 135.393 42.1465C135.393 43.1366 135.113 43.9928 134.554 44.715C133.995 45.4375 133.226 45.9966 132.247 46.3925C131.28 46.7769 130.174 46.9691 128.927 46.9691C127.052 46.9691 125.439 46.5087 124.087 45.5887C122.736 44.6566 121.851 43.3755 121.432 41.7446L118.811 42.1814C119.102 43.6725 119.702 44.9597 120.61 46.043C121.519 47.1263 122.672 47.965 124.07 48.5591C125.479 49.1418 127.064 49.4328 128.823 49.4328ZM146.556 48.9086H149.142V38.3723L157.546 23.7473H154.576L147.849 35.4368L141.087 23.7473H138.116L146.556 38.3723V48.9086ZM167.659 49.4328C169.418 49.4328 170.985 49.1418 172.36 48.5591C173.746 47.9765 174.841 47.1378 175.645 46.043C176.448 44.9361 176.85 43.6026 176.85 42.0417C176.85 40.8535 176.629 39.8691 176.186 39.0887C175.755 38.2966 175.208 37.6617 174.544 37.1841C173.891 36.6949 173.222 36.3221 172.534 36.0658C171.847 35.7979 171.247 35.5941 170.735 35.4543L165.807 34.004C165.155 33.8177 164.479 33.5788 163.78 33.2876C163.093 32.9964 162.511 32.5945 162.033 32.082C161.567 31.5694 161.334 30.888 161.334 30.0376C161.334 29.1989 161.59 28.4534 162.103 27.8011C162.616 27.1371 163.315 26.6187 164.2 26.246C165.085 25.8615 166.087 25.6752 167.205 25.6868C168.964 25.6984 170.473 26.1935 171.731 27.172C173 28.1389 173.764 29.4377 174.02 31.0685L176.71 30.5793C176.302 28.3194 175.249 26.5372 173.548 25.2325C171.847 23.9162 169.739 23.2522 167.223 23.2406C165.569 23.229 164.095 23.5085 162.802 24.0793C161.509 24.6384 160.489 25.4363 159.744 26.4731C158.999 27.4982 158.626 28.7213 158.626 30.1425C158.626 31.8315 159.132 33.1478 160.146 34.0914C161.171 35.0233 162.452 35.7164 163.99 36.1707L170.368 38.0753C170.95 38.25 171.538 38.4888 172.132 38.7917C172.727 39.0945 173.222 39.5139 173.618 40.0497C174.026 40.5855 174.229 41.2845 174.229 42.1465C174.229 43.1366 173.95 43.9928 173.391 44.715C172.831 45.4375 172.063 45.9966 171.084 46.3925C170.117 46.7769 169.011 46.9691 167.764 46.9691C165.889 46.9691 164.276 46.5087 162.924 45.5887C161.573 44.6566 160.688 43.3755 160.268 41.7446L157.647 42.1814C157.938 43.6725 158.538 44.9597 159.447 46.043C160.356 47.1263 161.509 47.965 162.907 48.5591C164.316 49.1418 165.901 49.4328 167.659 49.4328ZM187.149 48.9086H189.718V26.211H198.507V23.7473H178.36V26.211H187.149V48.9086ZM201.309 48.9086H217.034V46.4449H203.877V37.3763H214.938V34.9126H203.877V26.211H217.034V23.7473H201.309V48.9086ZM221.239 48.9086H223.703V29.4785L232.649 48.9086H234.309L243.273 29.4785V48.8911H245.719V23.7473H243.325L233.488 44.9072L223.598 23.7473H221.239V48.9086Z" fill="black"/>
<path d="M19.5888 49.9167C23.285 49.9167 26.5444 49.1552 29.367 47.6317C32.2119 46.086 34.4409 43.9243 36.0538 41.1465C37.6667 38.3688 38.4732 35.1317 38.4732 31.4355V0.521515H33.5V30.7971C33.5 33.306 33.0744 35.479 32.2232 37.3159C31.3943 39.1304 30.2855 40.6313 28.8966 41.8186C27.5301 42.9834 26.0291 43.8459 24.3939 44.4059C22.7586 44.9657 21.1568 45.246 19.5888 45.246C18.0431 45.246 16.4525 44.9657 14.8172 44.4059C13.182 43.8459 11.6699 42.9834 10.281 41.8186C8.91449 40.6313 7.80562 39.1304 6.95435 37.3159C6.10307 35.479 5.67746 33.306 5.67746 30.7971V0.521515L0.704346 0.555117V31.4355C0.704346 35.1541 1.5108 38.4024 3.1237 41.1801C4.7366 43.9579 6.96557 46.1082 9.81053 47.6317C12.6555 49.1552 15.9149 49.9167 19.5888 49.9167ZM47.8917 48.9086H52.6296V11.543L69.8341 48.9086H73.0263L90.2642 11.543V48.875H94.9685V0.521515H90.365L71.447 41.2137L52.428 0.521515H47.8917V48.9086Z" fill="black"/>
</svg>
