<svg width="1222" height="755" viewBox="0 0 1222 755" fill="none" xmlns="http://www.w3.org/2000/svg">
<path d="M916.128 372.758C904.733 400.761 889.745 428.175 867.173 451.516C843.366 476.156 812.955 496.31 781.563 514.222C751.333 531.455 720.45 549.455 685.611 559.99C653.639 569.669 620.034 574.921 586.72 580.587C513.921 592.98 439.961 611.305 379.066 647.188C346.005 666.664 318.461 690.329 299.299 719.809C280.465 748.786 268.054 780.39 255.243 811.344C229.513 873.578 195.836 934.484 142.706 984.619C113.565 1012.12 80.6497 1036.47 43.8511 1057C28.2099 1065.74 15.7623 1072.35 0.012207 1080.96H1223V0.948975C1163.67 15.7623 1117.5 44.6807 1072 77.937C1019.77 116.092 986.604 165.224 965.737 219.254C946.286 269.773 936.596 322.445 916.128 372.758Z" fill="#484BF2"/>
</svg>
