<svg width="1223" height="893" viewBox="0 0 1223 893" fill="none" xmlns="http://www.w3.org/2000/svg">
<path d="M306.872 705.487C318.267 677.48 333.255 650.063 355.827 626.719C379.634 602.076 410.045 581.919 441.437 564.005C471.667 546.769 502.55 528.767 537.389 518.231C569.361 508.551 602.966 503.297 636.28 497.631C709.079 485.236 783.039 466.909 843.934 431.021C876.995 411.543 904.539 387.874 923.701 358.391C942.535 329.41 954.946 297.802 967.757 266.844C993.487 204.602 1027.16 143.688 1080.29 93.5466C1109.43 66.041 1142.35 41.6931 1179.15 21.1525C1194.79 12.4167 1207.24 5.80603 1222.99 -2.81165H-0.000366211V1077.34C59.3345 1062.53 105.496 1033.61 151.004 1000.35C203.226 962.187 236.396 913.048 257.263 859.011C276.714 808.486 286.404 755.806 306.872 705.487Z" fill="white"/>
</svg>
