<svg width="175" height="352" viewBox="0 0 175 352" fill="none" xmlns="http://www.w3.org/2000/svg">
<path d="M77.5308 -132.252C77.3503 -125.749 76.6252 -119.196 74.9677 -112.443C70.9915 -96.3009 58.698 -82.8508 55.2662 -66.2116C45.3174 -18.0392 78.9126 12.336 98.2055 51.53C128.53 113.142 90.4131 137.408 55.3145 184.391C28.1697 220.714 9.59075 274.049 48.2433 309.841C73.4702 333.186 116.575 319.763 114.91 358.986C113.976 381.018 87.2079 397.261 78.8355 415.868C67.256 441.581 69.2684 463.464 75.537 485.152L383.366 146.994L77.5308 -132.252ZM90.1741 15.1076C88.0422 10.406 85.1717 6.10268 83.0285 1.39066C81.0763 -2.91568 79.3065 -7.3078 77.2573 -11.5764C73.1599 -20.0918 69.5059 -28.4548 67.8992 -37.8514C65.7817 -50.2174 63.5987 -67.8387 74.1086 -77.1748C74.6683 -77.6734 75.7655 -77.5763 76.2978 -77.1115C80.3007 -73.4781 79.5888 -67.1447 79.499 -62.2205C79.336 -53.8926 79.4731 -45.4378 79.9543 -37.1318C80.516 -27.6164 82.1944 -18.617 86.4245 -10.0646C88.3499 -6.16145 90.6419 -2.38626 92.3097 1.6394C93.9897 5.69723 94.2575 9.70668 94.409 14.0938C94.4424 15.2182 93.6268 15.8828 92.746 16.0042C91.886 16.376 90.6772 16.219 90.1741 15.1076ZM98.4338 162.21C97.3609 157.192 101.23 150.796 106.004 149.033C107.555 148.451 109.368 148.381 111.035 148.809C114.616 148.944 117.289 152.121 116.864 155.75C116.424 159.577 113.643 163.895 110.309 165.857C105.96 168.408 99.6556 167.953 98.4338 162.21ZM67.5083 300.168C57.1766 297.13 50.1285 287.814 48.4377 277.394C47.3125 270.498 47.4733 262.947 47.448 255.94C47.4311 249.699 47.8287 243.436 48.8967 237.259C50.961 225.303 55.3591 213.753 62.0636 203.573C69.0669 192.928 78.6886 184.359 87.8338 175.628C88.7508 174.761 89.7836 174.337 90.8189 174.252C95.5848 172.566 99.1011 177.164 99.0063 181.684C98.8804 187.354 94.9353 191.829 92.7157 196.807C90.1745 202.501 89.1133 208.852 88.5699 215.024C87.3321 229.081 89.4357 243.306 90.9152 257.235C92.0134 267.598 94.5342 279.932 90.5165 290.042C86.7951 299.349 76.6897 302.87 67.5083 300.168ZM82.3391 356.764C82.7597 367.413 74.4593 376.494 63.8099 377.037C53.1604 377.579 44.1773 369.378 43.7567 358.73C43.336 348.081 51.6365 338.999 62.2859 338.457C72.9354 337.914 81.9185 346.115 82.3391 356.764ZM85.7351 90.6695C86.6609 114.105 68.4146 134.068 44.9771 135.262C21.5396 136.456 1.7926 118.429 0.866855 94.9931C-0.0589007 71.5573 18.1874 51.5943 41.6249 50.4003C65.0624 49.2063 84.8094 67.2337 85.7351 90.6695ZM54.9485 15.6996C55.2856 24.2317 48.6515 31.4899 40.1293 31.9131C31.5967 32.3478 24.417 25.7933 24.0913 17.2717C23.7543 8.73964 30.3883 1.4814 38.9105 1.05817C47.4213 0.624588 54.6124 7.18944 54.9485 15.6996Z" fill="white"/>
</svg>
