<svg viewBox="549.77 16.868 617.56 177.931" width="617.56" height="177.931" xmlns="http://www.w3.org/2000/svg"><path d="M 1167.173 91.619 C 1160.672 91.496 1154.127 90.829 1147.391 89.231 C 1131.291 85.395 1117.973 73.211 1101.37 69.925 C 1053.303 60.398 1022.565 94.293 983.162 113.951 C 921.222 144.852 897.365 106.919 850.758 72.21 C 814.726 45.367 761.589 27.248 725.38 66.253 C 701.762 91.709 714.723 134.73 675.516 133.414 C 653.493 132.676 637.537 106.03 619.02 97.817 C 593.431 86.457 571.525 88.667 549.77 95.134 L 550.278 193.299 L 847.948 194.799 L 1167.33 193.839 L 1167.173 91.619 Z M 1019.672 105.588 C 1024.397 103.413 1028.731 100.501 1033.467 98.314 C 1037.794 96.322 1042.205 94.511 1046.496 92.422 C 1055.056 88.246 1063.459 84.514 1072.873 82.822 C 1085.262 80.592 1102.907 78.25 1112.131 88.685 C 1112.623 89.241 1112.514 90.34 1112.044 90.877 C 1108.367 94.916 1102.041 94.26 1097.118 94.214 C 1088.791 94.125 1080.335 94.338 1072.023 94.893 C 1062.502 95.541 1053.484 97.301 1044.886 101.611 C 1040.962 103.573 1037.162 105.9 1033.118 107.605 C 1029.042 109.323 1025.029 109.627 1020.641 109.817 C 1019.516 109.861 1018.86 109.051 1018.748 108.17 C 1018.385 107.313 1018.555 106.102 1019.672 105.588 Z M 872.476 115.168 C 877.506 114.049 883.86 117.865 885.572 122.627 C 886.137 124.174 886.188 125.988 885.741 127.661 C 885.568 131.245 882.363 133.949 878.738 133.556 C 874.916 133.15 870.628 130.405 868.701 127.086 C 866.197 122.756 866.72 116.442 872.476 115.168 Z M 734.846 85.448 C 737.995 75.08 747.387 67.943 757.826 66.158 C 764.734 64.97 772.284 65.064 779.291 64.976 C 785.533 64.903 791.792 65.245 797.957 66.259 C 809.891 68.218 821.394 72.517 831.503 79.136 C 842.072 86.05 850.539 95.604 859.171 104.679 C 860.028 105.589 860.441 106.619 860.516 107.654 C 862.15 112.409 857.514 115.969 852.995 115.915 C 847.327 115.839 842.893 111.931 837.939 109.754 C 832.272 107.261 825.932 106.256 819.766 105.767 C 805.722 104.654 791.474 106.886 777.528 108.491 C 767.153 109.683 754.791 112.316 744.725 108.385 C 735.457 104.743 732.045 94.661 734.846 85.448 Z M 678.089 100.796 C 667.435 101.312 658.443 93.086 658.015 82.432 C 657.587 71.779 665.884 62.715 676.538 62.199 C 687.191 61.683 696.184 69.909 696.612 80.563 C 697.04 91.216 688.742 100.28 678.089 100.796 Z M 944.156 101.82 C 920.709 102.956 900.942 84.872 900 61.426 C 899.058 37.979 917.298 18.055 940.745 16.919 C 964.191 15.783 983.959 33.867 984.901 57.313 C 985.843 80.76 967.602 100.684 944.156 101.82 Z M 1019.459 70.338 C 1010.923 70.752 1003.736 64.177 1003.405 55.651 C 1003.062 47.116 1009.694 39.871 1018.219 39.469 C 1026.755 39.056 1033.942 45.631 1034.274 54.156 C 1034.616 62.67 1027.973 69.926 1019.459 70.338 Z" fill="white"></path></svg>