<svg width="1887" height="953" viewBox="0 0 1887 953" fill="none" xmlns="http://www.w3.org/2000/svg">
<path d="M301.316 147.367L81.6494 364.725" stroke="white" stroke-miterlimit="10"/>
<path d="M249.021 87.1423L184.362 151.128" stroke="white" stroke-miterlimit="10"/>
<path d="M306.057 283.812L189.812 398.846" stroke="white" stroke-miterlimit="10"/>
<path d="M225.233 246.177L142.048 328.516" stroke="white" stroke-miterlimit="10"/>
<path d="M600.765 138.753L381.099 356.11" stroke="white" stroke-miterlimit="10"/>
<path d="M548.47 78.5283L483.81 142.514" stroke="white" stroke-miterlimit="10"/>
<path d="M605.506 275.198L489.261 390.232" stroke="white" stroke-miterlimit="10"/>
<path d="M524.682 237.563L441.497 319.901" stroke="white" stroke-miterlimit="10"/>
<path d="M394.459 543.623L174.792 760.981" stroke="white" stroke-miterlimit="10"/>
<path d="M342.163 483.398L277.503 547.384" stroke="white" stroke-miterlimit="10"/>
<path d="M399.2 680.068L282.955 795.102" stroke="white" stroke-miterlimit="10"/>
<path d="M318.375 642.433L235.191 724.771" stroke="white" stroke-miterlimit="10"/>
<path d="M1306.73 69.8389L1087.07 287.196" stroke="white" stroke-miterlimit="10"/>
<path d="M1254.44 9.61426L1189.78 73.6001" stroke="white" stroke-miterlimit="10"/>
<path d="M1311.48 206.284L1195.23 321.318" stroke="white" stroke-miterlimit="10"/>
<path d="M1230.65 168.649L1147.47 250.987" stroke="white" stroke-miterlimit="10"/>
<path d="M1606.18 61.2249L1386.52 278.582" stroke="white" stroke-miterlimit="10"/>
<path d="M1553.89 1L1489.23 64.9859" stroke="white" stroke-miterlimit="10"/>
<path d="M1610.92 197.669L1494.68 312.703" stroke="white" stroke-miterlimit="10"/>
<path d="M1530.1 160.034L1446.92 242.373" stroke="white" stroke-miterlimit="10"/>
<path d="M1399.88 466.095L1180.21 683.452" stroke="white" stroke-miterlimit="10"/>
<path d="M1347.58 405.87L1282.92 469.856" stroke="white" stroke-miterlimit="10"/>
<path d="M1404.62 602.54L1288.37 717.574" stroke="white" stroke-miterlimit="10"/>
<path d="M1323.79 564.905L1240.61 647.243" stroke="white" stroke-miterlimit="10"/>
<path d="M908.049 412.687L688.382 630.044" stroke="white" stroke-miterlimit="10"/>
<path d="M855.754 352.462L791.094 416.448" stroke="white" stroke-miterlimit="10"/>
<path d="M912.79 549.131L796.545 664.165" stroke="white" stroke-miterlimit="10"/>
<path d="M831.966 511.496L748.781 593.834" stroke="white" stroke-miterlimit="10"/>
<path d="M801.849 820.14L582.182 1037.5" stroke="white" stroke-miterlimit="10"/>
<path d="M749.554 759.916L684.894 823.901" stroke="white" stroke-miterlimit="10"/>
<path d="M725.765 918.95L642.581 1001.29" stroke="white" stroke-miterlimit="10"/>
<path d="M370.085 926.096L150.418 1143.45" stroke="white" stroke-miterlimit="10"/>
<path d="M317.79 865.871L253.13 929.857" stroke="white" stroke-miterlimit="10"/>
<path d="M1581.81 701.264L1362.14 918.622" stroke="white" stroke-miterlimit="10"/>
<path d="M1529.51 641.04L1464.85 705.025" stroke="white" stroke-miterlimit="10"/>
<path d="M1586.55 837.709L1470.31 952.743" stroke="white" stroke-miterlimit="10"/>
<path d="M1505.73 800.074L1422.54 882.413" stroke="white" stroke-miterlimit="10"/>
<path d="M1881.26 692.65L1661.59 910.007" stroke="white" stroke-miterlimit="10"/>
<path d="M1828.96 632.425L1764.3 696.411" stroke="white" stroke-miterlimit="10"/>
<path d="M1886 829.095L1769.75 944.129" stroke="white" stroke-miterlimit="10"/>
<path d="M1805.18 791.46L1721.99 873.798" stroke="white" stroke-miterlimit="10"/>
</svg>
